<?xml version="1.0"?><svg xmlns="http://www.w3.org/2000/svg" version="1.1" width="24" height="24" x="0" y="0" viewBox="0 0 512 512" style="enable-background:new 0 0 512 512" xml:space="preserve"><g><path d="M221.181 344.045c25.657-3.747 62.691-26.707 122.363-86.379C446.984 154.225 527.922 31.009 501.845 4.931c-26.078-26.078-149.294 54.86-252.736 158.301-59.671 59.671-82.632 96.704-86.379 122.363l6.613 54.99 51.838 3.46z" style="" fill="#f89e00"/><path d="m181.596 396.354-16.952-51.067-48.208-14.095s-59.574-14.986-97.16 51.834C-18.373 449.786 31.557 512 31.557 512c16.152-30.032 25.365-26.962 61.416-35.376 36.051-8.414 88.624-36.051 88.623-80.27z" style="" fill="#7c5748"/><path d="m141.062 355.82-24.628-24.628s-59.574-14.986-97.16 51.834C-18.373 449.786 31.557 512 31.557 512c-24.259-89.483 80.271-141.564 109.505-156.18z" style="" fill="#5f4c44"/><path d="M41.323 354.346c-7.739 7.246-15.233 16.581-22.048 28.68C-18.373 449.786 31.557 512 31.557 512c16.152-30.032 25.365-26.962 61.416-35.376a155.997 155.997 0 0 0 18.917-5.773c-1.659-5.958-1.474-13.512 3.255-22.663 0 0-26.04-7.615-43.728-25.303-4.238-4.238-6.633-8.844-8.29-13.818-5.283-15.846-2.212-35.129-21.804-54.721z" style="" fill="#db1f16"/><path d="M41.323 354.346c-7.739 7.246-15.233 16.581-22.048 28.68C-18.373 449.786 31.557 512 31.557 512c-11.669-42.991 6.387-77.261 31.568-102.933-5.281-15.846-2.21-35.129-21.802-54.721z" style="" fill="#b22627"/><path d="m225.558 348.417-67.196-67.196c-5.326-5.326-13.961-5.326-19.286 0l-26.663 26.663c-5.326 5.326-5.326 13.961 0 19.286l67.196 67.196c5.326 5.326 13.961 5.326 19.286 0l26.663-26.663c5.326-5.326 5.326-13.96 0-19.286z" style="" fill="#c0c9d2"/><path d="m139.524 334.722 26.389-26.389c5.401-5.401 14.158-5.401 19.56 0l-26.975-26.975c-5.401-5.401-14.158-5.401-19.56 0l-26.389 26.389c-5.401 5.401-5.401 14.158 0 19.561l26.975 26.975c-5.401-5.402-5.401-14.159 0-19.561z" style="" fill="#a6aeba"/><path d="M272.737 186.859c-59.671 59.671-86.154 93.183-95.386 113.356l-14.62-14.62c3.747-25.659 26.707-62.691 86.379-122.363C352.551 59.791 475.767-21.146 501.845 4.931 488.814-8.1 376.178 83.419 272.737 186.859z" style="" fill="#d38302"/></g></svg>
