<?xml version="1.0"?><svg xmlns="http://www.w3.org/2000/svg" version="1.1" width="24" height="42" x="0" y="0" viewBox="0 0 256 256" style="enable-background:new 0 0 512 512" xml:space="preserve" class=""><g><path fill="#eeeeee" d="M195.096 40.852v18.053H60.904V12.989a5 5 0 0 1 5-5h96.328c18.15 0 32.864 14.713 32.864 32.863zM195.096 216.495v26.516a5 5 0 0 1-5 5H65.904a5 5 0 0 1-5-5v-26.516z"  class=""/><path fill="#aeaeae" d="M60.904 216.495h134.191v7.668H60.904zM60.904 51.237h134.191v7.668H60.904z"/><path fill="#71c1e8" d="M56.796 58.905h142.407v157.59H56.796z" class=""/><path fill="#f0c020" d="M83.635 58.905h88.731v157.589H83.635z" class=""/><path fill="#eeeeee" d="m134.119 109.409 6.722 9.04a7.623 7.623 0 0 0 3.637 2.66l10.964 3.775c4.878 1.68 6.715 7.617 3.638 11.758l-6.521 8.777a7.63 7.63 0 0 0-1.505 4.547l-.002 11.471c-.001 5.235-5.155 8.912-10.105 7.21l-10.466-3.6a7.622 7.622 0 0 0-4.96 0l-10.466 3.6c-4.95 1.702-10.105-1.975-10.105-7.21l-.002-11.471a7.624 7.624 0 0 0-1.505-4.547l-6.521-8.777c-3.077-4.141-1.24-10.078 3.638-11.758l10.964-3.775a7.628 7.628 0 0 0 3.637-2.66l6.722-9.04c3.047-4.101 9.187-4.101 12.236 0z" class=""/><path d="M226.179 139.475c-1.002-4.322-1.665-7.177-7.496-9.104-2.284-.754-2.279-3.995 0-4.748 3.51-1.16 5.83-1.926 7.496-9.104.595-2.566 4.273-2.573 4.87 0 1.697 7.309 4.214 8.029 7.497 9.104 2.284.754 2.279 3.995 0 4.748-3.511 1.16-5.831 1.926-7.496 9.104-.599 2.578-4.272 2.578-4.871 0z" fill="#000000"/><path fill="#f0c020" d="M231.884 128.02c-1.2.87-2.28 2.02-3.23 3.62-.8-1.28-1.88-2.51-3.41-3.59 1.26-.9 2.39-2.09 3.38-3.79.99 1.72 2.1 2.9 3.26 3.76z" class=""/><path d="M24.949 139.475c-1.002-4.322-1.665-7.177-7.496-9.104-2.284-.754-2.279-3.995 0-4.748 3.51-1.16 5.83-1.926 7.496-9.104.595-2.566 4.273-2.573 4.87 0 1.697 7.309 4.214 8.029 7.497 9.104 2.284.754 2.279 3.995 0 4.748-3.511 1.16-5.831 1.926-7.496 9.104-.599 2.578-4.272 2.578-4.871 0z" fill="#000000"/><path fill="#f0c020" d="M30.654 128.02c-1.2.87-2.28 2.02-3.23 3.62-.8-1.28-1.88-2.51-3.41-3.59 1.26-.9 2.39-2.09 3.38-3.79.991 1.72 2.1 2.9 3.26 3.76z" class=""/><path fill="#c4e4fd" d="M83.63 209H66.8a2.5 2.5 0 1 1 0-5h16.83a2.5 2.5 0 1 1 0 5zM189.2 209h-16.83a2.5 2.5 0 1 1 0-5h14.33V81.91a2.5 2.5 0 1 1 5 0V206.5a2.5 2.5 0 0 1-2.5 2.5zm0-134.59a2.5 2.5 0 0 1-2.5-2.5v-3a2.5 2.5 0 1 1 5 0v3a2.5 2.5 0 0 1-2.5 2.5z"/><path fill="#f7e4b0" d="M172.37 209h-10a2.5 2.5 0 1 1 0-5h10a2.5 2.5 0 1 1 0 5zm-20 0H83.63a2.5 2.5 0 1 1 0-5h68.74a2.5 2.5 0 1 1 0 5z"/><path fill="#ffffff" d="M112.583 158.921a2.501 2.501 0 0 1 1.551-3.178l2.837-.976a2.501 2.501 0 0 1 1.626 4.729l-2.837.976a2.5 2.5 0 0 1-3.177-1.551zm27.656 1.551-7.32-2.518a14.925 14.925 0 0 0-5.41-.816 2.5 2.5 0 1 1-.177-4.996 19.995 19.995 0 0 1 7.213 1.084l4.007 1.379.001-4.643a20.269 20.269 0 0 1 3.971-11.999l4.586-6.172a2.5 2.5 0 1 1 4.014 2.982l-4.586 6.172a15.23 15.23 0 0 0-2.985 9.018l-.001 8.145c0 1.721-1.696 2.918-3.313 2.364z"/><path d="M65.91 10.49h56.22a2.5 2.5 0 0 0 0-5H65.91c-4.14 0-7.5 3.359-7.5 7.5v43.415h-1.613a2.5 2.5 0 0 0-2.5 2.5v157.589a2.5 2.5 0 0 0 2.5 2.5H58.4v24.016c.01 4.14 3.37 7.5 7.5 7.5h88.57a2.5 2.5 0 0 0 2.5-2.5c0-1.37-1.12-2.49-2.49-2.5H65.9c-1.37 0-2.49-1.12-2.5-2.5v-24.016h129.2v24.016a2.514 2.514 0 0 1-2.5 2.5h-15.63a2.5 2.5 0 0 0 0 5h15.63c4.13 0 7.49-3.36 7.5-7.5v-24.016h1.604a2.5 2.5 0 0 0 2.5-2.5V58.905a2.5 2.5 0 0 0-2.5-2.5H197.6V40.85c-.02-19.635-15.895-35.359-35.37-35.359h-20.1a2.5 2.5 0 0 0 0 5H162.23c16.71.029 30.34 13.649 30.37 30.359v15.556H63.4V12.99a2.515 2.515 0 0 1 2.51-2.5zm17.72 80.909c1.38 0 2.51-1.119 2.51-2.489V61.405h83.726v152.589H86.14V108.899c0-1.369-1.13-2.5-2.51-2.5-1.37 0-2.5 1.131-2.5 2.5v105.095H59.297V61.405H81.13V88.91c0 1.37 1.13 2.489 2.5 2.489zm113.074-29.994v152.589h-21.838V61.405z" fill="#000000"/><circle cx="132.13" cy="7.99" r="2.5" fill="#000000"/><circle cx="164.47" cy="248.01" r="2.5" fill="#000000"/><path d="M83.63 101.399c1.38 0 2.51-1.119 2.51-2.5 0-1.369-1.13-2.5-2.51-2.5-1.37 0-2.5 1.131-2.5 2.5 0 1.381 1.13 2.5 2.5 2.5zM101.435 146.908a5.099 5.099 0 0 1 1.012 3.057l.002 11.471c.001 6.961 6.837 11.836 13.418 9.574l10.466-3.6a5.146 5.146 0 0 1 3.334 0l10.466 3.6c6.61 2.269 13.417-2.644 13.418-9.574l.002-11.47a5.09 5.09 0 0 1 1.012-3.057l6.521-8.776c4.089-5.504 1.653-13.38-4.831-15.613l-10.964-3.775a5.093 5.093 0 0 1-2.444-1.788l-6.722-9.04c-4.051-5.448-12.198-5.449-16.25 0l-6.723 9.041a5.093 5.093 0 0 1-2.444 1.787l-10.964 3.775c-6.483 2.233-8.921 10.108-4.831 15.613zm-.063-19.66 10.963-3.775a10.087 10.087 0 0 0 4.83-3.532l6.722-9.04c2.052-2.759 6.175-2.758 8.227 0l6.722 9.039a10.076 10.076 0 0 0 4.83 3.533l10.964 3.775c3.282 1.13 4.516 5.117 2.445 7.902l-6.521 8.777a10.188 10.188 0 0 0-1.998 6.037l-.002 11.471c-.001 3.522-3.462 5.992-6.792 4.846l-10.466-3.6a10.17 10.17 0 0 0-6.586 0l-10.466 3.6c-3.333 1.144-6.791-1.324-6.792-4.846l-.002-11.472c0-2.159-.71-4.303-1.998-6.037l-6.521-8.776c-2.075-2.785-.841-6.772 2.441-7.902z" fill="#000000"/></g></svg>